<svg version="1.2" xmlns="http://www.w3.org/2000/svg" viewBox="0 0 302 348" width="302" height="348"><defs><linearGradient id="P" gradientUnits="userSpaceOnUse"/><linearGradient id="g1" x2="1" href="#P" gradientTransform="matrix(223.716,57.808,-14.838,57.425,78,282)"><stop stop-color="#fff" stop-opacity="1"/><stop offset="1" stop-color="#fff" stop-opacity="0"/></linearGradient></defs><style>.a{fill:url(#g1)}</style><path fill-rule="evenodd" class="a" d="m294.2 320.9c-4.7-3.2-10-4.9-15.5-5.5-2.7-0.3-5.4-0.3-8.1 0l-2.1 0.2-1.9 0.4c-0.7 0.1-1.3 0.3-2 0.5q-1 0.2-1.9 0.5c-10.2 3-19 8.4-27.8 12.8-17.4 8.9-37.1 13.1-56.6 12.6-19.6-0.6-39.1-6-55.9-16.1l-1.6-0.9-1.5-1-3.1-2-3-2.2-1.5-1-1.4-1.2-2.9-2.3-2.8-2.4c-1.9-1.5-3.6-3.3-5.4-5-3.5-3.5-6.8-7.1-9.8-11-1.6-1.8-2.9-3.9-4.4-5.9-0.7-1-1.3-2-2-3-0.7-1.1-1.4-2.1-1.9-3.2-2.8-4.8-4.4-4-1.7 1 0.6 1.1 1.3 2.1 1.9 3.2 0.7 1.1 1.3 2.1 2 3.2 1.5 2 2.8 4.2 4.3 6.1 3 4.1 6.3 7.8 9.8 11.5 1.7 1.7 3.5 3.6 5.3 5.2l2.8 2.6 2.9 2.4 1.5 1.2 1.5 1.1 3 2.3 3.1 2.1 1.6 1.1 1.6 1c17 10.8 37.1 17 57.4 18.1 20.3 1 41-3 59.5-12.1 9.1-4.4 17.7-9.5 26.8-12.1 4.6-1.3 9.1-1.9 13.6-1.4 4.5 0.6 9 2 12.6 4.5 3.5 2.3 5.5 4.7 6.9 6.3 0.8 0.8 1.3 1.5 1.9 1.9q0.8 0.7 1.4 0.5 0.5-0.1 0.8-1.2c0.1-0.7 0.2-1.8-0.1-3.1q-0.1-0.1-0.1-0.3 0-0.1-0.1-0.2 0-0.2-0.1-0.3 0-0.1 0-0.3c-0.1-0.3-0.3-0.7-0.5-1.1q-0.1-0.1-0.1-0.3-0.1-0.2-0.2-0.3-0.1-0.2-0.1-0.3-0.1-0.2-0.2-0.3c-0.2-0.5-0.5-0.8-0.8-1.3-1.1-1.7-2.9-3.4-5.1-5z"/></svg>